<svg width="27" height="9" viewBox="0 0 27 9" fill="none" xmlns="http://www.w3.org/2000/svg">
<path d="M2.676 0.792V0.9C2.16 0.875999 1.908 1.224 1.908 2.496V7.308C1.908 8.58 2.16 8.916 2.676 8.892V9H0V8.892C0.516 8.916 0.768 8.58 0.768 7.308V2.496C0.768 1.224 0.516 0.875999 0 0.9V0.792H2.676ZM10.5114 8.508C10.3314 8.856 9.98344 9 9.63544 9C8.91544 9 8.59144 8.556 8.36344 7.992C7.82344 6.672 7.85944 5.088 7.34344 3.756C6.98344 2.832 6.25144 2.916 5.59144 3.48C5.31544 3.72 5.06344 4.032 4.87144 4.308V7.308C4.87144 8.58 5.12344 8.916 5.63944 8.892V9H3.02344V8.892C3.53944 8.916 3.79144 8.58 3.79144 7.308V4.98C3.79144 3.708 3.53944 3.36 3.02344 3.384V3.276C3.73144 3.276 4.54744 2.952 4.87144 2.484V3.924C5.39944 3.216 6.09544 2.484 6.95944 2.484C7.52344 2.484 8.02744 2.772 8.33944 3.444C8.97544 4.8 8.92744 7.104 9.64744 8.184C9.80344 8.412 10.1274 8.676 10.4274 8.436L10.5114 8.508ZM15.4321 7.308C15.4321 8.58 15.6841 8.916 16.2001 8.892V9H13.5121C11.2681 9 9.99609 7.392 9.99609 5.232C9.99609 3.9 10.7281 2.484 12.2281 2.484C13.1761 2.484 13.8961 3.12 14.3521 3.888V2.484C14.3521 1.212 14.1001 0.875999 13.5841 0.9V0.792C14.2921 0.792 15.1081 0.468 15.4321 -7.15256e-07V7.308ZM14.3521 7.308V4.368C13.5481 2.664 12.1441 2.7 11.4601 3.72C10.7761 4.752 11.1001 6.492 11.6761 7.5C12.1081 8.244 12.8401 8.784 13.4401 8.784C14.0281 8.784 14.3521 8.364 14.3521 7.308ZM18.348 7.308C18.348 8.58 18.6 8.916 19.116 8.892V9H16.5V8.892C17.016 8.916 17.268 8.58 17.268 7.308V4.98C17.268 3.708 17.016 3.36 16.5 3.384V3.276C17.208 3.276 18.024 2.952 18.348 2.484V7.308ZM17.808 0.792C18.24 0.792 18.6 1.14 18.6 1.572C18.6 2.016 18.24 2.364 17.808 2.364C17.376 2.364 17.016 2.016 17.016 1.572C17.016 1.14 17.376 0.792 17.808 0.792ZM26.2928 8.508C26.1128 8.856 25.7768 9 25.4288 9C24.6488 9 24.3008 8.46 24.0608 7.812C23.8928 7.344 23.7728 6.792 23.6768 6.228C23.5688 7.656 22.9568 9 21.2528 9C20.2088 9 19.4048 8.412 19.4648 7.296C19.5728 5.508 21.8528 5.172 22.4408 3.984C22.9568 2.976 22.1528 2.448 21.2528 2.856C20.6888 3.108 20.1248 3.672 19.8608 4.032L19.4768 3.024C20.1848 2.688 21.0848 2.484 22.0088 2.484C23.7848 2.484 24.2168 3.216 24.5408 4.8C24.8048 6.024 24.9248 7.416 25.4408 8.184C25.5848 8.412 25.9208 8.676 26.2088 8.436L26.2928 8.508ZM23.3648 4.464C23.2568 4.032 23.1008 3.624 22.8608 3.312C22.9568 3.708 22.8488 4.188 22.6568 4.524C22.1408 5.448 20.8448 5.868 20.5928 7.02C20.4728 7.608 20.6648 8.232 21.3488 8.4C22.2368 8.616 22.9808 7.896 23.2448 7.14C23.5208 6.36 23.5568 5.256 23.3648 4.464Z" fill="white"/>
</svg>
