<?xml version="1.0" standalone="no"?>

<svg version="1.0" xmlns="http://www.w3.org/2000/svg"
        width="571.000000pt" height="221.000000pt" viewBox="0 0 571.000000 221.000000"
        preserveAspectRatio="xMidYMid meet">

    <g transform="translate(0.000000,221.000000) scale(0.100000,-0.100000)" fill="#000000" stroke="none">
    <path d="M1715 2025 c-152 -28 -283 -104 -324 -187 -40 -83 -22 -181 39 -213
            82 -42 179 6 197 98 5 26 3 30 -8 20 -18 -18 -54 -16 -69 2 -17 21 -15 66 4
            104 33 64 150 125 264 139 43 5 72 5 72 -1 0 -38 -118 -127 -169 -127 l-24 0
            21 -23 c12 -13 26 -47 32 -76 13 -70 13 -612 0 -682 -21 -112 -100 -189 -192
        -189 -35 0 -38 2 -33 23 12 48 -49 83 -84 48 -29 -29 -26 -57 8 -92 27 -26 36
        -29 98 -29 47 0 92 8 139 24 102 35 104 36 104 57 0 10 10 24 22 30 18 10 24
            8 38 -8 20 -25 115 -39 123 -18 3 7 -5 23 -19 36 -47 44 -56 100 -61 409 -8
445 9 581 81 638 l25 19 -52 7 c-76 9 -153 6 -232 -9z"/>
<path d="M2044 1835 c14 -15 28 -42 31 -59 3 -17 5 -179 3 -359 l-3 -329 -28
-24 -28 -24 112 0 113 0 -22 20 c-36 34 -42 83 -42 353 0 225 2 257 15 257 56
0 143 -91 195 -203 47 -102 67 -181 82 -319 l12 -108 48 0 47 0 3 386 3 386
28 24 28 24 -112 0 -113 0 22 -20 c32 -30 43 -88 40 -217 l-3 -118 -42 88
c-79 164 -192 249 -351 264 l-64 6 26 -28z"/>
<path d="M2698 1844 c13 -11 27 -37 32 -59 5 -22 10 -173 10 -335 0 -162 -5
-313 -10 -335 -5 -22 -19 -48 -32 -59 -23 -18 -20 -18 132 -14 182 6 226 18
299 84 100 90 136 191 129 368 -7 178 -59 275 -176 333 -55 27 -64 28 -232 32
-171 3 -174 3 -152 -15z m303 -95 c49 -24 83 -67 109 -136 19 -50 21 -73 18
-168 -3 -91 -9 -120 -29 -165 -45 -96 -115 -150 -199 -150 l-40 0 0 318 c0
175 3 322 7 326 11 11 94 -5 134 -25z"/>
<path d="M3350 1840 c11 -11 23 -32 27 -47 5 -16 8 -170 8 -343 0 -173 -3
-327 -8 -343 -4 -15 -16 -36 -27 -47 -20 -20 -19 -20 205 -20 l226 0 -22 29
c-21 29 -21 32 -8 103 l14 73 125 0 125 0 14 -72 c15 -71 14 -74 -7 -103 l-23
-30 123 0 c89 1 118 3 105 11 -31 18 -47 65 -143 422 -52 194 -97 360 -100
370 -5 15 -19 17 -105 17 -99 0 -100 0 -88 -21 6 -12 9 -40 7 -63 -9 -73 -159
-640 -182 -681 -28 -53 -58 -58 -83 -13 -16 30 -18 63 -18 358 0 179 3 337 8
353 4 15 16 36 27 47 20 20 19 20 -100 20 -119 0 -120 0 -100 -20z m585 -305
c25 -94 49 -178 51 -187 5 -16 -4 -18 -95 -18 -56 0 -101 3 -101 6 0 7 66 280
81 338 6 21 12 36 14 34 2 -2 25 -80 50 -173z"/>
<path d="M1530 531 c-63 -62 -27 -161 58 -161 26 0 45 7 57 20 10 11 16 22 13
25 -3 3 -11 -1 -18 -10 -19 -23 -66 -19 -84 7 -23 32 -20 94 4 118 27 27 42
25 74 -6 15 -16 26 -21 25 -13 -1 32 -15 44 -57 47 -36 3 -47 -1 -72 -27z"/>
<path d="M2050 550 c-36 -4 -59 -7 -52 -8 8 -1 12 -25 12 -81 0 -54 -4 -81
-12 -85 -7 -3 21 -4 62 -3 72 2 75 3 78 27 l3 25 -19 -23 c-12 -16 -26 -23
-43 -20 -20 2 -25 9 -27 41 -3 31 0 37 15 37 11 0 24 -5 31 -12 17 -17 24 -5
14 22 -6 15 -11 19 -16 12 -4 -7 -16 -12 -27 -12 -15 0 -19 7 -19 35 0 32 2
35 30 35 17 0 33 -7 39 -17 5 -10 12 -15 15 -12 7 7 -4 50 -13 47 -3 -1 -35
-4 -71 -8z"/>
<path d="M3165 550 c-33 -4 -54 -7 -47 -8 16 -3 17 -143 0 -160 -9 -9 4 -12
59 -12 64 0 71 2 76 22 9 31 -1 36 -19 10 -8 -12 -26 -22 -40 -22 -21 0 -24 4
-24 40 0 32 4 40 18 40 10 0 23 -5 30 -12 9 -9 12 -7 12 9 0 12 -4 25 -10 28
-5 3 -10 1 -10 -4 0 -6 -9 -11 -20 -11 -16 0 -20 7 -20 35 0 31 3 35 26 35 15
0 33 -8 41 -17 12 -17 13 -16 11 6 -4 29 -6 29 -83 21z"/>
<path d="M4551 523 c2 -52 13 -100 20 -88 4 6 10 36 13 68 7 53 6 57 -13 57
-18 0 -21 -6 -20 -37z"/>
<path d="M1088 543 c8 -3 12 -30 12 -83 0 -53 -4 -80 -12 -83 -7 -3 7 -5 32
-5 25 0 39 2 33 5 -9 3 -13 30 -13 83 0 53 4 80 13 83 6 3 -8 5 -33 5 -25 0
-39 -2 -32 -5z"/>
<path d="M1248 538 c7 -7 12 -40 12 -78 0 -38 -5 -71 -12 -78 -9 -9 -4 -12 23
-12 22 0 29 3 21 9 -9 5 -12 25 -10 61 l3 53 45 -61 c34 -47 50 -62 69 -62 20
0 22 3 13 12 -17 17 -16 155 1 161 6 3 -1 5 -18 5 -16 0 -24 -2 -17 -5 13 -5
18 -113 5 -113 -5 0 -28 27 -51 60 -34 47 -49 60 -70 60 -20 0 -23 -3 -14 -12z"/>
<path d="M1748 543 c16 -6 17 -144 0 -161 -9 -9 -2 -12 33 -11 24 0 38 3 32 6
-7 2 -13 18 -13 34 0 21 5 29 18 29 20 0 46 -45 37 -61 -4 -5 10 -9 29 -9 l35
0 -25 37 c-21 32 -23 38 -9 45 8 5 15 22 15 38 0 42 -32 60 -105 59 -33 0 -54
-3 -47 -6z m101 -17 c7 -8 11 -27 9 -43 -2 -22 -9 -29 -30 -31 -27 -3 -28 -2
-28 42 0 38 3 46 19 46 10 0 24 -6 30 -14z"/>
<path d="M2228 543 c8 -3 12 -30 12 -83 0 -53 -4 -80 -12 -83 -7 -3 14 -6 47
-6 101 -1 149 42 125 114 -17 51 -43 65 -120 64 -36 0 -59 -3 -52 -6z m117
-23 c39 -43 10 -145 -39 -138 -19 3 -21 11 -24 81 -3 75 -2 77 21 77 13 0 32
-9 42 -20z"/>
<path d="M2500 531 c13 -24 11 -132 -2 -148 -8 -10 -2 -13 26 -13 32 0 35 2
28 18 -13 26 -15 118 -2 141 10 19 8 21 -25 21 -32 0 -35 -2 -25 -19z"/>
<path d="M2656 539 c10 -17 12 -132 2 -151 -8 -16 -3 -18 46 -18 30 0 66 4 80
10 32 12 34 43 6 63 -18 13 -19 16 -5 27 19 16 19 44 -1 64 -19 19 -140 24
-128 5z m99 -39 c0 -30 -4 -35 -25 -38 -24 -3 -26 0 -26 38 0 38 1 41 25 38
22 -3 26 -8 26 -38z m13 -82 c3 -22 -2 -29 -23 -34 -31 -8 -35 -5 -41 36 -5
30 -4 31 28 28 28 -2 34 -7 36 -30z"/>
<path d="M2898 543 c16 -6 17 -144 0 -161 -9 -9 3 -12 54 -12 68 0 78 7 78 48
-1 14 -3 13 -12 -3 -14 -25 -28 -35 -51 -35 -17 0 -18 8 -15 85 l3 85 -35 -1
c-19 0 -29 -3 -22 -6z"/>
<path d="M3459 536 c13 -16 13 -122 -1 -148 -7 -16 -4 -18 27 -18 31 0 34 2
27 18 -13 26 -15 118 -2 141 10 19 8 21 -26 21 -30 0 -34 -2 -25 -14z"/>
<path d="M3620 531 c14 -27 13 -134 -2 -149 -9 -9 -6 -12 17 -12 23 0 26 3 17
12 -7 7 -12 35 -12 62 l1 51 39 -45 c22 -25 42 -53 45 -62 4 -11 16 -18 32
-18 20 0 24 3 17 18 -13 28 -7 144 8 153 8 6 0 9 -22 9 -22 0 -30 -3 -22 -9 9
-5 12 -25 10 -62 l-3 -54 -45 62 c-32 45 -51 62 -68 63 -19 0 -21 -3 -12 -19z"/>
<path d="M3879 536 c13 -16 11 -132 -3 -154 -10 -16 97 -16 127 0 56 29 64 93
18 139 -26 26 -36 29 -91 29 -53 0 -61 -2 -51 -14z m97 -4 c37 -24 45 -101 14
-132 -19 -19 -59 -28 -61 -12 -4 31 -6 138 -2 145 5 9 35 9 49 -1z"/>
<path d="M4138 543 c8 -3 12 -30 12 -83 0 -53 -4 -80 -12 -83 -7 -3 7 -5 32
-5 25 0 39 2 33 5 -9 3 -13 30 -13 83 0 53 4 80 13 83 6 3 -8 5 -33 5 -25 0
-39 -2 -32 -5z"/>
<path d="M4331 496 c-6 -29 -20 -70 -30 -90 l-19 -36 32 1 c17 0 25 3 19 6 -7
2 -13 16 -13 29 0 21 4 24 39 24 32 0 40 -4 44 -22 4 -13 1 -26 -6 -30 -7 -4
3 -8 24 -8 l36 0 -28 81 c-16 44 -27 85 -23 90 3 5 -10 9 -29 9 -33 0 -34 -2
-46 -54z m43 0 c3 -13 9 -31 12 -40 5 -12 0 -16 -18 -16 -34 0 -37 6 -25 46
12 40 22 43 31 10z"/>
<path d="M4550 389 c0 -25 33 -22 38 4 2 12 -3 17 -17 17 -15 0 -21 -6 -21
-21z"/>
</g>
</svg>
